<svg width="60" height="60" viewBox="0 0 60 60" fill="none" xmlns="http://www.w3.org/2000/svg">
<g clip-path="url(#clip0)">
<path class="vk" d="M44.842 39.4572C44.8055 39.3792 44.7717 39.3139 44.7402 39.2618C44.2194 38.3246 43.2251 37.1738 41.757 35.8097L41.7255 35.7787L41.7099 35.7627L41.6944 35.7476H41.6789C41.0124 35.1122 40.5906 34.6853 40.4139 34.4662C40.0911 34.0503 40.0181 33.6285 40.1952 33.2017C40.3208 32.8789 40.7892 32.1969 41.6013 31.1551C42.0281 30.6037 42.3664 30.1613 42.6166 29.8271C44.4179 27.4323 45.1986 25.9021 44.9594 25.2351L44.8653 25.079C44.8028 24.985 44.6412 24.8991 44.381 24.8211C44.1208 24.743 43.7875 24.7307 43.3817 24.7823L38.8832 24.8142C38.7791 24.8037 38.6751 24.8065 38.5705 24.8215C38.4664 24.8375 38.3989 24.853 38.3674 24.8685C38.3359 24.8845 38.3103 24.8973 38.2893 24.9073L38.2268 24.9544C38.1747 24.9854 38.1177 25.0402 38.0551 25.1187C37.9926 25.1968 37.9401 25.2876 37.899 25.3922C37.4096 26.6521 36.8527 27.8235 36.2277 28.9068C35.8424 29.5523 35.4882 30.1125 35.1659 30.5859C34.8431 31.0602 34.5724 31.409 34.3537 31.6322C34.1351 31.8559 33.9369 32.0362 33.7603 32.1709C33.5831 32.3069 33.4476 32.3635 33.3544 32.343C33.2604 32.3224 33.1718 32.3014 33.0887 32.28C32.9431 32.1864 32.8253 32.059 32.7372 31.8974C32.6487 31.7363 32.5889 31.5331 32.5574 31.2884C32.5263 31.0437 32.5076 30.8328 32.503 30.6557C32.4976 30.4786 32.5003 30.2289 32.5108 29.9061C32.5213 29.5834 32.5263 29.3652 32.5263 29.2501C32.5263 28.8548 32.5341 28.4252 32.5501 27.9614C32.5656 27.498 32.5788 27.131 32.5889 26.8603C32.5994 26.59 32.6044 26.3034 32.6044 26.0011C32.6044 25.6998 32.5861 25.4625 32.5496 25.2904C32.5131 25.1187 32.4583 24.9525 32.3857 24.7905C32.3127 24.6293 32.2059 24.5042 32.0652 24.4161C31.9246 24.3276 31.7503 24.2573 31.5421 24.2052C30.9897 24.0801 30.2871 24.013 29.4335 24.0021C27.4965 23.982 26.2521 24.1071 25.7001 24.3773C25.4815 24.4924 25.2833 24.648 25.1067 24.8462C24.919 25.0753 24.893 25.2009 25.0286 25.2205C25.6536 25.3146 26.0959 25.5387 26.3561 25.8925L26.4502 26.0797C26.5228 26.2157 26.5958 26.4549 26.6688 26.7982C26.7419 27.142 26.7885 27.5218 26.8095 27.9386C26.8615 28.6987 26.8615 29.3492 26.8095 29.8911C26.7574 30.4329 26.7081 30.8543 26.6611 31.1556C26.6141 31.4578 26.5438 31.702 26.4502 31.8897C26.3561 32.0777 26.2941 32.1923 26.2626 32.2339C26.2311 32.2754 26.2055 32.3014 26.1845 32.3119C26.0489 32.3635 25.9088 32.39 25.7627 32.39C25.6166 32.39 25.4399 32.317 25.2313 32.1709C25.0231 32.0257 24.8067 31.8248 24.5831 31.5696C24.3589 31.3149 24.1069 30.9579 23.8252 30.4996C23.544 30.0417 23.2523 29.5003 22.9506 28.8753L22.7009 28.422C22.5447 28.1308 22.3311 27.7062 22.0604 27.1493C21.7897 26.5923 21.55 26.0536 21.3418 25.5323C21.2583 25.3141 21.1337 25.1475 20.967 25.0324L20.889 24.9854C20.8369 24.9439 20.7534 24.8996 20.6388 24.853C20.5238 24.806 20.4046 24.7722 20.2795 24.7512L15.9998 24.7823C15.5624 24.7823 15.2657 24.8818 15.1096 25.0794L15.047 25.173C15.0155 25.2255 15 25.3091 15 25.4232C15 25.5382 15.0315 25.6784 15.094 25.8446C15.719 27.3131 16.3983 28.7292 17.1324 30.0928C17.8669 31.4573 18.5042 32.5562 19.046 33.3888C19.5875 34.2224 20.1394 35.0081 20.7018 35.7476C21.2642 36.4872 21.6363 36.9606 21.8184 37.1687C22.0006 37.3774 22.1435 37.5335 22.248 37.6376L22.6383 38.0128C22.888 38.2625 23.2555 38.562 23.7394 38.9108C24.2238 39.26 24.7597 39.6033 25.3482 39.9411C25.9361 40.2799 26.6214 40.5551 27.402 40.7692C28.1831 40.9829 28.9432 41.0687 29.6823 41.0267H31.4786C31.8434 40.9957 32.1191 40.8815 32.3063 40.683L32.3688 40.6049C32.4104 40.5428 32.4496 40.446 32.4862 40.3164C32.5222 40.1863 32.5409 40.0429 32.5409 39.8868C32.53 39.439 32.5642 39.035 32.6423 38.6761C32.7203 38.3169 32.8089 38.0462 32.908 37.8635C33.007 37.6819 33.1184 37.528 33.244 37.4029C33.369 37.2778 33.4571 37.203 33.5096 37.1765C33.5617 37.1509 33.6037 37.1327 33.6347 37.1217C33.8844 37.0386 34.1784 37.1194 34.5172 37.3637C34.8554 37.6088 35.1732 37.9101 35.4699 38.2698C35.7666 38.6291 36.1232 39.0322 36.54 39.4805C36.9563 39.9283 37.3206 40.2611 37.6333 40.4798L37.946 40.6679C38.1542 40.7925 38.4249 40.9071 38.7581 41.0116C39.0914 41.1153 39.3831 41.1417 39.6328 41.0897L43.6314 41.0267C44.0272 41.0267 44.3344 40.9619 44.5531 40.8313C44.7717 40.7021 44.9018 40.5579 44.9434 40.4017C44.9849 40.2456 44.9877 40.0694 44.9512 39.8708C44.9146 39.6732 44.8781 39.5353 44.842 39.4572Z" fill="white"/>
</g>
<rect class="stroke" x="0.5" y="0.5" width="59" height="59" rx="29.5" stroke="white"/>
<defs>
<clipPath id="clip0">
<rect class="vk" width="30" height="17.1168" fill="white" transform="translate(15 23.6406)"/>
</clipPath>
</defs>
</svg>
