<svg width="60" height="60" viewBox="0 0 60 60" fill="none" xmlns="http://www.w3.org/2000/svg">
<path d="M53.2594 5.63232H21.6173C21.1216 5.63232 20.7204 6.03411 20.7204 6.52916V19.4603H6.53014C6.03448 19.4603 5.6333 19.8615 5.6333 20.3571V45.5163C5.6333 46.012 6.03448 46.4132 6.53014 46.4132H14.0325L21.0917 53.876C21.2645 54.059 21.5019 54.1564 21.7434 54.1564C21.8546 54.1564 21.967 54.1355 22.0747 54.0931C22.4161 53.9573 22.6397 53.6273 22.6403 53.2602L22.6439 46.4132H39.7142C40.2099 46.4132 40.611 46.012 40.611 45.5163V32.5882H53.2594C53.755 32.5882 54.1562 32.1864 54.1562 31.6913V6.52916C54.1562 6.03411 53.755 5.63232 53.2594 5.63232ZM38.8174 44.6195H21.7476C21.2526 44.6195 20.8508 45.0207 20.8508 45.5163L20.8478 51.0086L15.0704 44.9005C14.9006 44.7217 14.665 44.6201 14.4187 44.6201H7.42697V21.2546H20.7204V31.6919C20.7204 32.187 21.1216 32.5888 21.6173 32.5888H27.9699V38.8792C27.9699 39.2403 28.1863 39.5661 28.5193 39.7061C28.6317 39.7533 28.7495 39.776 28.8661 39.776C29.0969 39.776 29.3235 39.6869 29.4945 39.5189L36.5567 32.5888H38.8174V44.6195ZM52.3626 30.7945H36.1908C35.9559 30.7945 35.7305 30.8866 35.5625 31.051L29.7629 36.7417V31.6913C29.7629 31.1957 29.3617 30.7945 28.8661 30.7945H22.5135V7.42599H52.362V30.7939H52.3626V30.7945Z" fill="#1779FA"/>
</svg>
