<svg width="60" height="60" viewBox="0 0 60 60" fill="none" xmlns="http://www.w3.org/2000/svg">
<path d="M30.2079 31.1821C25.0086 31.1821 20.0223 33.2475 16.3458 36.924C12.6694 40.6005 10.604 45.5868 10.604 50.7861C10.604 51.0224 10.6978 51.2491 10.865 51.4162C11.0321 51.5833 11.2587 51.6772 11.495 51.6772H48.9208C49.1571 51.6772 49.3838 51.5833 49.5509 51.4162C49.718 51.2491 49.8119 51.0224 49.8119 50.7861C49.8119 45.5868 47.7465 40.6005 44.07 36.924C40.3936 33.2475 35.4072 31.1821 30.2079 31.1821ZM12.404 49.9009C12.625 45.3286 14.597 41.0167 17.9111 37.859C21.2252 34.7012 25.6273 32.9398 30.205 32.9398C34.7826 32.9398 39.1847 34.7012 42.4988 37.859C45.8129 41.0167 47.7849 45.3286 48.0059 49.9009H12.404Z" fill="#1779FA"/>
<path d="M30 6.49316C27.7676 6.49316 25.5854 7.15514 23.7292 8.39539C21.8731 9.63563 20.4264 11.3984 19.5721 13.4609C18.7178 15.5233 18.4942 17.7928 18.9298 19.9823C19.3653 22.1718 20.4403 24.183 22.0188 25.7615C23.5973 27.34 25.6085 28.415 27.798 28.8505C29.9875 29.2861 32.2569 29.0625 34.3194 28.2082C36.3819 27.3539 38.1447 25.9072 39.3849 24.0511C40.6252 22.1949 41.2871 20.0127 41.2871 17.7803C41.2762 14.7901 40.0835 11.9256 37.9691 9.81119C35.8547 7.69681 32.9902 6.50412 30 6.49316ZM30 27.3268C28.1201 27.3268 26.2824 26.7694 24.7193 25.725C23.1563 24.6805 21.938 23.1961 21.2186 21.4593C20.4992 19.7225 20.3109 17.8113 20.6777 15.9676C21.0444 14.1238 21.9497 12.4302 23.279 11.1009C24.6083 9.77157 26.3019 8.86631 28.1457 8.49956C29.9895 8.13281 31.9006 8.32104 33.6374 9.04045C35.3742 9.75986 36.8587 10.9781 37.9031 12.5412C38.9475 14.1043 39.505 15.942 39.505 17.8219C39.494 20.3394 38.4891 22.7506 36.7089 24.5308C34.9288 26.311 32.5175 27.3159 30 27.3268Z" fill="#1779FA"/>
<path d="M15.1604 23.7624H16.3485C16.5828 23.7593 16.8064 23.664 16.9709 23.4973C17.1355 23.3305 17.2277 23.1056 17.2277 22.8713V12.1783C17.2341 12.117 17.2341 12.0553 17.2277 11.9941C18.3606 9.53093 20.187 7.4515 22.4835 6.01033C24.7799 4.56917 27.4467 3.8288 30.1574 3.87987C32.8681 3.93093 35.5051 4.7712 37.7456 6.29783C39.9862 7.82446 41.733 9.9712 42.7723 12.4753V22.8713C42.7655 22.9345 42.7655 22.9982 42.7723 23.0614C42.0902 24.7566 41.0809 26.3009 39.802 27.606C39.7149 27.688 39.6451 27.7867 39.597 27.8962C39.5488 28.0057 39.5232 28.1238 39.5217 28.2435C39.5202 28.3631 39.5428 28.4818 39.5881 28.5925C39.6334 28.7032 39.7006 28.8037 39.7856 28.8879C39.8706 28.9721 39.9717 29.0383 40.0828 29.0826C40.194 29.1269 40.3129 29.1484 40.4325 29.1457C40.5521 29.1431 40.67 29.1163 40.779 29.0672C40.8881 29.018 40.9861 28.9473 41.0673 28.8594C42.5156 27.3983 43.6622 25.6664 44.4416 23.7624H44.8396C46.4939 23.7624 48.0805 23.1052 49.2503 21.9355C50.4201 20.7657 51.0772 19.1791 51.0772 17.5248C51.0772 15.8705 50.4201 14.2839 49.2503 13.1141C48.0805 11.9443 46.4939 11.2872 44.8396 11.2872H44.1921C42.9427 8.54069 40.9292 6.21185 38.3921 4.57871C35.855 2.94557 32.9015 2.07715 29.8842 2.07715C26.8669 2.07715 23.9133 2.94557 21.3762 4.57871C18.8391 6.21185 16.8256 8.54069 15.5762 11.2872H15.1663C13.512 11.2872 11.9255 11.9443 10.7557 13.1141C9.58589 14.2839 8.92871 15.8705 8.92871 17.5248C8.92871 19.1791 9.58589 20.7657 10.7557 21.9355C11.9255 23.1052 13.512 23.7624 15.1663 23.7624H15.1604ZM49.3069 17.5248C49.3054 18.706 48.8354 19.8383 48.0002 20.6735C47.165 21.5087 46.0327 21.9787 44.8515 21.9802H44.5545V13.0693H44.8396C45.4255 13.0686 46.0058 13.1832 46.5474 13.4067C47.0889 13.6302 47.5812 13.9581 47.996 14.3718C48.4109 14.7856 48.7401 15.277 48.9651 15.8179C49.19 16.3589 49.3061 16.9389 49.3069 17.5248ZM15.1604 13.0693H15.4455V21.9802H15.1604C13.9787 21.9802 12.8455 21.5108 12.0099 20.6753C11.1744 19.8397 10.7049 18.7064 10.7049 17.5248C10.7049 16.3431 11.1744 15.2099 12.0099 14.3743C12.8455 13.5388 13.9787 13.0693 15.1604 13.0693Z" fill="#1779FA"/>
</svg>
