<svg width="60" height="60" viewBox="0 0 60 60" fill="none" xmlns="http://www.w3.org/2000/svg">
<path d="M55.3901 13.9903C55.3059 13.8875 55.1998 13.8048 55.0796 13.7482C54.9593 13.6917 54.8279 13.6628 54.695 13.6636H20.7921C20.5875 13.6633 20.389 13.7334 20.23 13.8621C20.071 13.9908 19.9611 14.1703 19.9188 14.3705L13.3248 45.8557C13.297 45.9871 13.2992 46.123 13.3314 46.2534C13.3636 46.3838 13.4248 46.5052 13.5105 46.6086C13.5961 46.712 13.7041 46.7947 13.8263 46.8505C13.9484 46.9063 14.0816 46.9338 14.2158 46.9309H48.1188C48.3234 46.9312 48.5219 46.8612 48.6809 46.7324C48.8399 46.6037 48.9498 46.4242 48.9921 46.224L55.5861 14.7388C55.6118 14.6074 55.6075 14.4718 55.5736 14.3422C55.5397 14.2126 55.4769 14.0923 55.3901 13.9903ZM30.6772 15.4458H44.7149L43.705 21.3864H29.6673L30.6772 15.4458ZM47.3762 45.1487H15.297L21.5347 15.4458H28.8653L27.7307 22.1289C27.7091 22.2568 27.7156 22.3878 27.7499 22.5128C27.7841 22.6378 27.8452 22.7539 27.9289 22.8529C28.0126 22.9519 28.1169 23.0314 28.2346 23.0859C28.3522 23.1404 28.4803 23.1686 28.6099 23.1685H44.4594C44.6701 23.1687 44.874 23.0942 45.035 22.9582C45.1959 22.8223 45.3035 22.6337 45.3386 22.426L46.5267 15.4458H53.596L47.3762 45.1487Z" fill="#1779FA"/>
<path d="M6.23762 16.6337H15.1485C15.3848 16.6337 15.6115 16.5399 15.7786 16.3727C15.9457 16.2056 16.0396 15.979 16.0396 15.7427C16.0396 15.5063 15.9457 15.2797 15.7786 15.1126C15.6115 14.9454 15.3848 14.8516 15.1485 14.8516H6.23762C6.00129 14.8516 5.77464 14.9454 5.60753 15.1126C5.44042 15.2797 5.34653 15.5063 5.34653 15.7427C5.34653 15.979 5.44042 16.2056 5.60753 16.3727C5.77464 16.5399 6.00129 16.6337 6.23762 16.6337Z" fill="#1779FA"/>
<path d="M5.64356 26.1386H13.3663C13.6027 26.1386 13.8293 26.0447 13.9964 25.8776C14.1635 25.7105 14.2574 25.4839 14.2574 25.2475C14.2574 25.0112 14.1635 24.7845 13.9964 24.6174C13.8293 24.4503 13.6027 24.3564 13.3663 24.3564H5.64356C5.40723 24.3564 5.18058 24.4503 5.01347 24.6174C4.84635 24.7845 4.75247 25.0112 4.75247 25.2475C4.75247 25.4839 4.84635 25.7105 5.01347 25.8776C5.18058 26.0447 5.40723 26.1386 5.64356 26.1386Z" fill="#1779FA"/>
<path d="M12.1782 33.2671H5.64356C5.40723 33.2671 5.18058 33.361 5.01347 33.5281C4.84635 33.6952 4.75247 33.9218 4.75247 34.1582C4.75247 34.3945 4.84635 34.6212 5.01347 34.7883C5.18058 34.9554 5.40723 35.0493 5.64356 35.0493H12.1782C12.4145 35.0493 12.6412 34.9554 12.8083 34.7883C12.9754 34.6212 13.0693 34.3945 13.0693 34.1582C13.0693 33.9218 12.9754 33.6952 12.8083 33.5281C12.6412 33.361 12.4145 33.2671 12.1782 33.2671Z" fill="#1779FA"/>
<path d="M10.396 43.3662H5.64356C5.40723 43.3662 5.18058 43.4601 5.01347 43.6272C4.84635 43.7943 4.75247 44.021 4.75247 44.2573C4.75247 44.4936 4.84635 44.7203 5.01347 44.8874C5.18058 45.0545 5.40723 45.1484 5.64356 45.1484H10.396C10.6324 45.1484 10.859 45.0545 11.0261 44.8874C11.1932 44.7203 11.2871 44.4936 11.2871 44.2573C11.2871 44.021 11.1932 43.7943 11.0261 43.6272C10.859 43.4601 10.6324 43.3662 10.396 43.3662Z" fill="#1779FA"/>
<path d="M42.0772 30.5703C41.8504 30.5101 41.609 30.5419 41.4055 30.6587C41.2019 30.7755 41.0527 30.9679 40.9901 31.194L38.7921 39.2732C38.7543 39.3881 38.7402 39.5094 38.7507 39.6298C38.7612 39.7502 38.7962 39.8672 38.8534 39.9737C38.9106 40.0802 38.9888 40.1739 39.0834 40.2492C39.178 40.3245 39.2868 40.3798 39.4034 40.4117C39.52 40.4435 39.6419 40.4513 39.7616 40.4346C39.8813 40.4179 39.9964 40.377 40.0998 40.3144C40.2032 40.2518 40.2928 40.1689 40.3632 40.0705C40.4335 39.9722 40.4831 39.8606 40.5089 39.7426L42.701 31.6633C42.7629 31.4357 42.732 31.1928 42.6151 30.9879C42.4981 30.783 42.3047 30.6328 42.0772 30.5703Z" fill="#1779FA"/>
<path d="M34.3545 30.5703C34.1276 30.5101 33.8862 30.5419 33.6827 30.6587C33.4792 30.7755 33.3299 30.9679 33.2673 31.194L31.0693 39.2732C31.0315 39.3881 31.0174 39.5094 31.0279 39.6298C31.0385 39.7502 31.0734 39.8672 31.1306 39.9737C31.1878 40.0802 31.266 40.1739 31.3606 40.2492C31.4552 40.3245 31.5641 40.3798 31.6807 40.4117C31.7973 40.4435 31.9191 40.4513 32.0389 40.4346C32.1586 40.4179 32.2736 40.377 32.3771 40.3144C32.4805 40.2518 32.5701 40.1689 32.6404 40.0705C32.7107 39.9722 32.7603 39.8606 32.7861 39.7426L34.9782 31.6633C35.0401 31.4357 35.0092 31.1928 34.8923 30.9879C34.7754 30.783 34.582 30.6328 34.3545 30.5703Z" fill="#1779FA"/>
<path d="M26.6317 30.5703C26.4049 30.5101 26.1635 30.5419 25.9599 30.6587C25.7564 30.7755 25.6071 30.9679 25.5446 31.194L23.3465 39.2732C23.3087 39.3881 23.2946 39.5094 23.3052 39.6298C23.3157 39.7502 23.3506 39.8672 23.4078 39.9737C23.465 40.0802 23.5433 40.1739 23.6378 40.2492C23.7324 40.3245 23.8413 40.3798 23.9579 40.4117C24.0745 40.4435 24.1964 40.4513 24.3161 40.4346C24.4358 40.4179 24.5509 40.377 24.6543 40.3144C24.7577 40.2518 24.8473 40.1689 24.9176 40.0705C24.9879 39.9722 25.0375 39.8606 25.0634 39.7426L27.2555 31.6633C27.3174 31.4357 27.2865 31.1928 27.1695 30.9879C27.0526 30.783 26.8592 30.6328 26.6317 30.5703Z" fill="#1779FA"/>
</svg>
