<svg width="60" height="60" viewBox="0 0 60 60" fill="none" xmlns="http://www.w3.org/2000/svg">
<path d="M58.5603 30.3803C58.3432 29.9342 57.8063 29.7495 57.3621 29.9653L51.0179 33.0474L46.6946 34.92C46.0273 34.7478 44.3227 34.3012 42.7915 33.8474L42.0406 33.5676C41.9306 33.527 41.8176 33.5102 41.707 33.5132C41.176 33.3416 40.7145 33.179 40.4036 33.0421C38.9124 32.3856 36.2482 30.8424 35.1744 29.9109C33.9613 28.8622 30.8009 24.97 30.7692 24.9305C30.5007 24.5993 30.0362 24.503 29.6583 24.6997C28.789 25.1523 25.9693 26.3463 24.4764 25.9122C23.6884 25.6779 22.2301 24.8779 21.8176 24.3798C21.5426 24.0486 21.3082 22.8546 21.4319 22.4732C21.7542 22.31 22.9763 22.5168 23.5748 22.6179C24.599 22.7913 25.5675 22.9551 26.3155 22.7129C27.772 22.2424 30.7088 19.733 31.4167 19.116C32.1192 18.8595 35.5852 17.6913 38.0024 18.6527C39.2777 19.1603 40.5178 19.3355 41.6239 19.3355C44.016 19.3355 45.7804 18.5134 45.9113 18.4506L54.7218 13.7422C55.1583 13.5084 55.3233 12.9655 55.0901 12.5285C54.8564 12.092 54.3135 11.9264 53.8764 12.1602L45.1054 16.8482C45.0749 16.8626 41.9551 18.2939 38.6655 16.9857C35.8004 15.845 32.0833 16.9792 30.9563 17.375C29.7061 16.9008 26.1917 15.6435 24.6301 15.8802C23.1724 16.1039 18.9274 16.3042 17.2079 15.9867C16.482 15.7816 10.9683 12.7981 6.14989 10.0957C5.71702 9.85352 5.17115 10.0072 4.929 10.4395C4.68686 10.8711 4.84051 11.4182 5.27219 11.6603C8.42366 13.4283 15.8614 17.5591 16.8515 17.7439C18.9549 18.1337 23.4749 17.8718 24.8997 17.6536C25.604 17.5466 27.5173 18.0733 29.192 18.6461C27.94 19.6703 26.4452 20.7853 25.7637 21.0054C25.4324 21.1124 24.5685 20.9659 23.8737 20.8481C22.4525 20.6078 20.9835 20.359 20.1226 21.2326C19.1618 22.2173 19.7375 24.683 20.4359 25.5236C21.1563 26.3935 22.9769 27.3376 23.97 27.6324C25.9024 28.1938 28.5743 27.1726 29.8245 26.6076C30.7704 27.7549 32.9515 30.3593 33.999 31.2651C35.306 32.3993 38.2362 34.0465 39.6795 34.6821C40.2415 34.9296 41.1916 35.2393 42.2068 35.5424L46.413 37.1095C46.633 37.2231 46.7998 37.4348 46.9092 37.7397C47.0993 38.27 47.0611 38.9779 46.8153 39.4993C46.5152 40.1306 45.842 40.4595 45.204 40.3674C45.0779 40.2945 44.9362 40.2538 44.7897 40.2478L39.087 37.2895C38.6476 37.0611 38.1059 37.2333 37.8781 37.6727C37.6503 38.1122 37.8213 38.6539 38.2613 38.8817L44.0047 41.8603C44.022 41.8687 44.0399 41.8735 44.0573 41.8819C44.1009 42.1091 44.0603 42.2669 43.9957 42.475C43.952 42.6149 43.9012 42.7787 43.8755 42.9682C43.4988 43.6642 42.6463 43.9721 41.915 43.6576L37.1014 41.5656C37.0799 41.556 37.0578 41.5524 37.0357 41.5447C37.007 41.5345 36.9783 41.5237 36.9496 41.5172C36.9203 41.51 36.8904 41.5064 36.8611 41.5028C36.8324 41.4992 36.8043 41.4944 36.7762 41.4932C36.7457 41.492 36.7158 41.4944 36.6859 41.4968C36.6584 41.4986 36.6309 41.4992 36.604 41.504C36.5741 41.5088 36.5454 41.5166 36.5167 41.5243C36.4904 41.5315 36.4635 41.5375 36.4378 41.547C36.4103 41.5572 36.3846 41.5704 36.3583 41.5829C36.3325 41.5955 36.3068 41.6068 36.2823 41.6218C36.2578 41.6361 36.2357 41.6541 36.213 41.6708C36.1891 41.6881 36.1657 41.7055 36.1436 41.7252C36.1227 41.7444 36.1041 41.7659 36.085 41.7868C36.0647 41.8095 36.0438 41.831 36.0258 41.8556C36.0085 41.8789 35.9947 41.9046 35.9792 41.9297C35.9666 41.9506 35.9523 41.9686 35.9415 41.9907C35.9379 41.9979 35.9367 42.0056 35.9332 42.0128C35.9302 42.0194 35.9254 42.0248 35.923 42.0313C35.914 42.0517 35.9104 42.072 35.9033 42.0929C35.8925 42.1234 35.8811 42.1539 35.874 42.1844C35.8674 42.2119 35.8644 42.24 35.8608 42.2681C35.8566 42.298 35.8518 42.3279 35.8512 42.3578C35.85 42.3865 35.8524 42.4152 35.8542 42.4439C35.856 42.4726 35.8572 42.5013 35.8614 42.53C35.8662 42.5587 35.874 42.5868 35.8811 42.6149C35.8883 42.6424 35.8949 42.6693 35.9045 42.6962C35.9146 42.7231 35.9272 42.7494 35.9397 42.7751C35.9517 42.8008 35.9636 42.8265 35.978 42.8504C35.9929 42.8756 36.0109 42.8989 36.0282 42.9222C36.045 42.9455 36.0617 42.9682 36.0808 42.9898C36.1006 43.0119 36.1233 43.031 36.146 43.0513C36.1675 43.0705 36.1879 43.0902 36.2112 43.1075C36.2357 43.1255 36.2626 43.141 36.2895 43.1566C36.3086 43.1685 36.326 43.1823 36.3463 43.1924L37.6294 43.828C38.3905 44.1897 38.7169 45.1033 38.3564 45.8656C38.1794 46.2399 37.8679 46.5227 37.4793 46.6614C37.0961 46.7983 36.6841 46.7774 36.317 46.6028L32.7087 44.8982L33.7371 43.1536C34.7272 41.4801 34.17 39.3097 32.4959 38.316C32.4953 38.316 32.4947 38.3155 32.4947 38.3155C31.7473 37.8742 30.9025 37.7397 30.1073 37.8718C30.2705 36.2737 29.5417 34.6606 28.099 33.8026C28.0978 33.8014 28.096 33.8008 28.0942 33.7996C26.6611 32.9578 24.9236 33.0773 23.6089 33.9527C23.3476 33.1754 22.8208 32.483 22.0609 32.0316C20.3743 31.0415 18.198 31.5994 17.2097 33.274L14.8049 37.3439L8.91931 33.1335C8.89839 33.1186 8.87507 33.1084 8.85295 33.0959C8.83143 33.0833 8.81229 33.0678 8.78957 33.057L2.42743 29.9671C1.9826 29.7513 1.4451 29.936 1.22926 30.3821C1.01282 30.8275 1.19877 31.3644 1.6442 31.5808L7.93818 34.6384L13.9745 38.957C13.5123 40.4822 14.1299 42.1874 15.5655 43.034C16.1293 43.3658 16.7481 43.5237 17.3591 43.5237C17.5558 43.5237 17.7507 43.5015 17.9439 43.4693C17.7741 45.0812 18.5095 46.7086 19.9665 47.5708C20.6104 47.9498 21.3285 48.1436 22.0603 48.1436C22.4328 48.1436 22.8089 48.0933 23.1802 47.9917C23.637 47.8667 24.0621 47.6664 24.4465 47.4076C24.7108 48.18 25.2393 48.867 25.9968 49.316C26.5594 49.6473 27.1777 49.8051 27.7881 49.8051C28.9982 49.8051 30.1797 49.1857 30.8403 48.0724L31.7952 46.4515L35.5493 48.2255C35.9995 48.4395 36.482 48.5477 36.9663 48.5477C37.3418 48.5477 37.7185 48.4832 38.0832 48.3528C38.9238 48.0533 39.5976 47.4428 39.9791 46.6339C40.2433 46.0749 40.3336 45.4794 40.2798 44.9048L41.2041 45.3066C41.6292 45.4901 42.0735 45.5762 42.5105 45.5762C43.7996 45.5762 45.0318 44.8235 45.5789 43.5679C45.6285 43.4549 45.6536 43.3371 45.6536 43.214C45.656 43.1811 45.6871 43.083 45.7092 43.0113C45.775 42.799 45.8635 42.515 45.8749 42.1473C46.9511 41.9973 47.9364 41.3252 48.4374 40.27C48.8882 39.3157 48.9498 38.1152 48.5988 37.1364C48.4793 36.804 48.3113 36.5164 48.1128 36.2623L51.7485 34.6875C51.7551 34.6845 51.7605 34.6803 51.7671 34.6767C51.7724 34.6743 51.7784 34.6737 51.7838 34.6707L58.1459 31.5802C58.5908 31.362 58.7767 30.8257 58.5603 30.3803ZM16.476 41.4867C15.645 40.997 15.3652 39.925 15.8518 39.0987L18.754 34.1858C19.0781 33.6376 19.661 33.3332 20.2595 33.3332C20.5626 33.3332 20.8699 33.4116 21.1491 33.5754C21.9748 34.0663 22.2511 35.1365 21.7644 35.961L18.8634 40.8744C18.3755 41.7007 17.3035 41.9745 16.476 41.4867ZM22.7066 46.2596C22.0759 46.4318 21.4266 46.3475 20.8771 46.024C19.7274 45.3436 19.3626 43.8178 20.0628 42.6238L23.8199 36.2707C24.2911 35.4689 25.1299 35.0193 25.9819 35.0193C26.3932 35.0193 26.807 35.1239 27.1836 35.3445C28.3262 36.0255 28.6843 37.546 27.9818 38.734L24.2271 45.0866C23.8851 45.6683 23.3452 46.085 22.7066 46.2596ZM29.296 47.1576C28.8069 47.9821 27.7343 48.256 26.9086 47.7693C26.0763 47.2766 25.7965 46.2046 26.2856 45.3789L29.1854 40.4661C29.51 39.9184 30.0918 39.6147 30.6897 39.6147C30.994 39.6147 31.3019 39.6936 31.5829 39.8592C32.4068 40.3495 32.6818 41.4173 32.194 42.2418L30.9772 44.3069C30.7249 44.3691 30.5007 44.5365 30.3812 44.79C30.2867 44.9903 30.2765 45.2067 30.3303 45.4052L29.296 47.1576Z" fill="#1779FA"/>
</svg>
